<svg width="334" height="58" viewBox="0 0 334 58" fill="none" xmlns="http://www.w3.org/2000/svg">
<g clip-path="url(#clip0_14_677)">
<path d="M44.9837 45.3115L41.4118 20.9863C41.1482 19.1845 40.409 17.4855 39.2703 16.0644C38.1316 14.6433 36.6347 13.5515 34.9336 12.9014L1.3329 0.0603177C1.1208 -0.0172198 0.888604 -0.0200816 0.674661 0.052191C0.460717 0.124463 0.277825 0.267553 0.156201 0.457824C0.0345776 0.648094 -0.0185007 0.874145 0.00573017 1.09866C0.0299611 1.32318 0.130052 1.53272 0.289472 1.69266L44.9837 45.3115Z" fill="white"/>
<path d="M22.9367 34.2173L12.4961 55.1113C12.3288 55.4445 12.2672 55.8208 12.3195 56.1899C12.3719 56.5591 12.5357 56.9034 12.789 57.1769C13.0424 57.4505 13.3732 57.6401 13.7372 57.7206C14.1013 57.801 14.4812 57.7684 14.8262 57.627L44.983 45.3364L22.9367 34.2173Z" fill="#D6F1FA"/>
<path d="M22.9371 34.218L26.4322 27.2085L44.9833 45.3115L22.9371 34.218Z" fill="#84D4F0"/>
<text x="50" y="40" font-family="Arial" font-size="24" font-weight="bold" fill="white">CardMaker</text>
<path d="M74.4457 16.7489C72.9355 16.7411 71.4389 17.0346 70.0434 17.6122C68.648 18.1899 67.3818 19.0401 66.319 20.113C65.2561 21.186 64.418 22.4602 63.8536 23.861C63.2892 25.2619 63.01 26.7612 63.0321 28.2713C63.0321 28.4058 63.0321 28.5338 63.0321 28.6618V49.2294H66.8729V37.0412C68.9732 38.866 71.67 39.8568 74.4521 39.8258C75.9705 39.8557 77.4792 39.5776 78.8871 39.0083C80.2951 38.439 81.573 37.5903 82.6439 36.5135C83.7148 35.4366 84.5563 34.1539 85.1178 32.7428C85.6792 31.3317 85.9489 29.8215 85.9106 28.3034C85.9345 26.787 85.655 25.2811 85.0884 23.8743C84.5219 22.4675 83.6797 21.1882 82.6115 20.1116C81.5433 19.0351 80.2706 18.183 78.8683 17.6055C77.4659 17.028 75.9623 16.7368 74.4457 16.7489V16.7489ZM74.4457 36.1962C70.1184 36.1962 66.8537 32.7971 66.8537 28.2905C66.8537 23.784 70.1184 20.3785 74.4457 20.3785C78.773 20.3785 82.0825 23.7584 82.0825 28.2905C82.0825 32.8227 78.7987 36.1962 74.4457 36.1962Z" fill="white"/>
<path d="M304.453 16.749C302.942 16.7411 301.445 17.0346 300.05 17.6122C298.654 18.1898 297.387 19.0398 296.324 20.1127C295.26 21.1856 294.422 22.4598 293.857 23.8606C293.292 25.2615 293.011 26.761 293.033 28.2714C293.033 34.8456 297.943 39.7938 304.453 39.7938C307.254 39.825 309.969 38.8273 312.083 36.99V39.3585H315.924V28.2906C315.946 26.7747 315.665 25.2697 315.098 23.864C314.53 22.4582 313.687 21.1802 312.618 20.1049C311.549 19.0296 310.276 18.1788 308.874 17.6025C307.472 17.0262 305.969 16.736 304.453 16.749V16.749ZM304.453 36.1963C300.125 36.1963 296.861 32.7971 296.861 28.2906C296.861 23.784 300.125 20.3785 304.453 20.3785C308.78 20.3785 312.083 23.7584 312.083 28.2906C312.083 32.8227 308.806 36.1963 304.453 36.1963Z" fill="white"/>
</g>
<defs>
<clipPath id="clip0_14_677">
<rect width="333.656" height="57.7641" fill="white"/>
</clipPath>
</defs>
</svg>